<?xml version="1.0" encoding="UTF-8" standalone="no"?>
<svg xmlns="http://www.w3.org/2000/svg" xmlns:xlink="http://www.w3.org/1999/xlink"
     width="100%" height="100%" viewBox="0 0 144 144"
     role="img" aria-label="CloakResume"
     style="fill-rule:evenodd;clip-rule:evenodd;">
  <defs>
    <linearGradient id="bg" x1="0" y1="0" x2="0" y2="1">
      <stop offset="0" stop-color="rgb(16,185,129)"/>
      <stop offset="1" stop-color="rgb(4,120,87)"/>
    </linearGradient>
    <radialGradient id="bloom" gradientUnits="userSpaceOnUse" cx="72" cy="55" r="100">
      <stop offset="0" stop-color="white" stop-opacity="0.3"/>
      <stop offset="1" stop-color="white" stop-opacity="0"/>
    </radialGradient>
    <path id="shield" d="M72,30L38,44L38,76C38,93.333 49.333,107.333 72,118C94.667,107.333 106,93.333 106,76L106,44L72,30Z"/>
    <clipPath id="shieldClip">
      <path d="M72,30L38,44L38,76C38,93.333 49.333,107.333 72,118C94.667,107.333 106,93.333 106,76L106,44L72,30Z"/>
    </clipPath>
  </defs>

  <rect width="144" height="144" fill="url(#bg)"/>
  <rect width="144" height="144" fill="url(#bloom)"/>

  <g transform="translate(72 72) scale(1.1) translate(-72 -72)">
    <use href="#shield" fill="white" fill-opacity="0.18"/>
    <use href="#shield" fill="none" stroke="white" stroke-opacity="0.55" stroke-width="3"/>
    <g clip-path="url(#shieldClip)">
      <circle cx="58" cy="60" r="5" fill="white"/>
      <line x1="68" y1="57" x2="92" y2="57" stroke="white" stroke-width="3.5" stroke-linecap="round"/>
      <line x1="68" y1="64" x2="84" y2="64" stroke="white" stroke-width="3.5" stroke-linecap="round" stroke-opacity="0.85"/>
      <line x1="52" y1="80" x2="86" y2="80" stroke="white" stroke-width="6" stroke-linecap="round" stroke-opacity="0.85"/>
      <line x1="52" y1="92" x2="74" y2="92" stroke="white" stroke-width="6" stroke-linecap="round" stroke-opacity="0.65"/>
    </g>
  </g>
</svg>
